<?xml version="1.0" encoding="UTF-8" standalone="no"?><!DOCTYPE svg PUBLIC "-//W3C//DTD SVG 1.1//EN" "http://www.w3.org/Graphics/SVG/1.1/DTD/svg11.dtd"><svg width="100%" height="100%" viewBox="0 0 36 36" version="1.1" xmlns="http://www.w3.org/2000/svg" xmlns:xlink="http://www.w3.org/1999/xlink" xml:space="preserve" xmlns:serif="http://www.serif.com/" style="fill-rule:evenodd;clip-rule:evenodd;stroke-linejoin:round;stroke-miterlimit:1.41421;"><g><path d="M8.471,10.872c0,-6.005 4.866,-10.872 10.868,-10.872c6.01,0 10.878,4.867 10.878,10.872c0,1.185 -0.193,2.326 -0.542,3.403c-0.604,-0.11 -1.228,-0.161 -1.864,-0.161c-3.423,0 -6.473,1.58 -8.471,4.052c-1.989,-2.472 -5.041,-4.052 -8.463,-4.052c-0.632,0 -1.26,0.051 -1.86,0.161c-0.356,-1.076 -0.546,-2.216 -0.546,-3.403" style="fill:#dd052b;fill-rule:nonzero;"/><path d="M0,24.986c0,-5.368 3.899,-9.828 9.016,-10.711c1.239,3.765 4.48,6.618 8.462,7.309c-0.35,1.073 -0.544,2.212 -0.544,3.402c0,2.582 0.902,4.955 2.405,6.822c-1.989,2.467 -5.04,4.05 -8.463,4.05c-6.005,0 -10.876,-4.871 -10.876,-10.872" style="fill:#007e48;fill-rule:nonzero;"/><path d="M29.675,14.275c5.115,0.88 9.009,5.343 9.009,10.711c0,6.001 -4.869,10.872 -10.873,10.872c-3.423,0 -6.473,-1.583 -8.471,-4.049c1.509,-1.867 2.408,-4.24 2.408,-6.822c0,-1.19 -0.189,-2.328 -0.543,-3.402c3.988,-0.692 7.233,-3.545 8.47,-7.31" style="fill:#005faa;fill-rule:nonzero;"/></g><g></g></svg>